# xmcd
#
# Track frame offsets: 
#        150
#        19987
#        35759
#        47857
#        73680
#        88232
#        112790
#        134697
#        159172
#        180484
#        208420
#        218471
#        234433
#
# Disc length: 3354 seconds
#
# Revision: 3
# Processed by: cddbd v1.5.2PL0 Copyright (c) Steve Scherf et al.
# Submitted via: ExactAudioCopy v1.0b4
#
DISCID=b70d180d
DTITLE=Supersonic Blues Machine - West Of Flushing, South Of Frisco
DYEAR=2016
DGENRE=Blues
TTITLE0=Miracle Man
TTITLE1=I Ain't Fallin' Again
TTITLE2=Running Whiskey (feat. Billy F. Gibbons)
TTITLE3=Remedy (feat. Warren Haynes)
TTITLE4=Bone Bucket Blues
TTITLE5=Let It Be
TTITLE6=That's My Way (feat. Chris Duarte)
TTITLE7=Ain't No Love (In The Heart Of The City)
TTITLE8=Nightmares And Dreams (feat. Eric Gales)
TTITLE9=Can't Take It No More (feat. Walter Trout)
TTITLE10=Whiskey Time (Running Whiskey's Extended Ending)
TTITLE11=Let's Call It A Day (feat. Robben Ford)
TTITLE12=Watchagonnado
EXTD=YEAR: 2016
EXTT0=
EXTT1=
EXTT2=
EXTT3=
EXTT4=
EXTT5=
EXTT6=
EXTT7=
EXTT8=
EXTT9=
EXTT10=
EXTT11=
EXTT12=
PLAYORDER=
